<svg xmlns="http://www.w3.org/2000/svg" width="18" height="18" viewBox="0 0 18 18" aria-hidden="true" focusable="false">
  <path fill="#4285F4" d="M17.64 9.204c0-.638-.057-1.252-.164-1.84H9v3.48h4.845c-.21 1.13-.844 2.087-1.797 2.734v2.273h2.906C16.34 14.287 17.64 11.95 17.64 9.204z"/>
  <path fill="#34A853" d="M9 18c2.43 0 4.467-.807 5.957-2.188l-2.906-2.273c-.807.54-1.838.861-3.051.861-2.347 0-4.334-1.585-5.044-3.713H.957v2.332C2.439 15.983 5.481 18 9 18z"/>
  <path fill="#FBBC05" d="M3.957 10.688A5.995 5.995 0 0 1 3.675 9c0-.58.103-1.147.282-1.688V4.98H.957A8.98 8.98 0 0 0 0 9c0 1.438.347 2.805.957 4.02l3-2.332z"/>
  <path fill="#EA4335" d="M9 3.563c1.322 0 2.512.455 3.444 1.35l2.582-2.582C13.467.9 11.43 0 9 0 5.481 0 2.439 2.018.957 4.98l3 2.333C4.666 5.147 6.653 3.563 9 3.563z"/>
</svg>
