<?xml version="1.0" encoding="UTF-8" standalone="no"?>
<!-- Created with Inkscape (http://www.inkscape.org/) -->

<svg
   width="12.1mm"
   height="12.1mm"
   viewBox="0 0 12.1 12.1"
   version="1.1"
   id="svg1"
   xml:space="preserve"
   xmlns="http://www.w3.org/2000/svg"
   xmlns:svg="http://www.w3.org/2000/svg"><defs
     id="defs1" /><g
     id="layer1"
     transform="translate(-21.376788,-9.6248675)"><path
       style="fill:#ffffff;fill-opacity:1;stroke-width:0.0136033"
       d="m 22.971264,21.661992 c -0.174998,-0.06139 -0.254482,-0.267535 -0.163483,-0.424013 0.01135,-0.01952 0.355573,-0.459248 0.764935,-0.977174 0.409362,-0.517924 0.748472,-0.948513 0.753577,-0.956862 0.006,-0.0098 -0.01554,-0.04716 -0.06098,-0.105714 -2.826578,-3.641879 -0.345441,-7.204589 6.434915,-9.240014 1.35365,-0.406358 1.404991,-0.394639 1.47033,0.335584 0.574553,6.421185 -1.326937,10.444007 -4.837304,10.233873 -1.00778,-0.06033 -2.065833,-0.375598 -2.468312,-0.735489 -0.094,-0.08405 -0.094,-0.08405 -0.127206,-0.04928 -0.01826,0.01913 -0.348089,0.434472 -0.732948,0.922986 -0.856144,1.086733 -0.834528,1.0659 -1.033522,0.996098 z m 5.026112,-1.88236 c 2.431715,-0.324219 3.697791,-3.288135 3.519893,-8.240157 -0.04104,-1.1424 -0.01269,-1.059997 -0.3329,-0.967774 -4.813945,1.386484 -7.580025,3.631635 -7.337019,5.955256 0.06663,0.637093 0.491318,1.643891 0.858653,2.035577 0.03029,0.0323 0.06343,0.07156 0.07366,0.08724 0.01157,0.01775 0.02538,0.02588 0.03658,0.02151 0.02142,-0.0083 1.674838,-2.097448 1.674747,-2.116057 -9e-5,-0.009 -0.154132,-0.01208 -0.522899,-0.01032 -0.632312,0.0031 -0.699685,-0.01026 -0.803433,-0.158956 -0.07287,-0.104435 -0.07249,-0.101798 -0.08109,-0.556035 -0.0079,-0.418402 -0.0079,-0.418402 -0.08733,-0.456287 -0.482863,-0.230398 -0.260158,-0.970937 0.267434,-0.889275 0.458195,0.07092 0.545662,0.717946 0.121065,0.895552 -0.06813,0.0285 -0.06813,0.0285 -0.06279,0.432201 0.0074,0.556753 -0.07808,0.50036 0.752045,0.496336 0.623538,-0.003 0.623538,-0.003 1.314719,-0.875111 0.826023,-1.042225 0.734399,-0.907979 0.68008,-0.996428 -0.744536,-1.212355 0.871444,-2.478439 1.846202,-1.446458 0.835385,0.884427 -0.108492,2.336383 -1.247215,1.918573 -0.04943,-0.01814 -0.09052,-0.0272 -0.09601,-0.02117 -0.0454,0.04977 -2.017491,2.553803 -2.017453,2.561627 4.5e-5,0.0057 0.0067,0.01248 0.01482,0.01516 0.01191,0.0039 1.55264,-0.0048 1.579715,-0.0089 0.0043,-6.48e-4 0.02311,-0.03446 0.04189,-0.07512 0.210906,-0.456444 0.89504,-0.30386 0.893199,0.199213 -0.0018,0.497307 -0.690502,0.642779 -0.893901,0.18882 -0.03837,-0.08565 0.02957,-0.08039 -0.938476,-0.07265 -1.037793,0.0083 -0.84621,-0.06585 -1.296019,0.501571 -0.78124,0.985514 -0.743041,0.93361 -0.711898,0.967286 0.376921,0.407565 1.846759,0.735718 2.753733,0.614793 z"
       id="path1" /></g></svg>
