<?xml version="1.0" encoding="UTF-8" standalone="no"?>
<!-- Created with Inkscape (http://www.inkscape.org/) -->

<svg
   version="1.1"
   id="svg1"
   width="1080"
   height="1080"
   viewBox="0 0 1080 1080"
   sodipodi:docname="eco-leaf-dual.svg"
   inkscape:version="1.4.2 (f4327f4, 2025-05-13)"
   xml:space="preserve"
   xmlns:inkscape="http://www.inkscape.org/namespaces/inkscape"
   xmlns:sodipodi="http://sodipodi.sourceforge.net/DTD/sodipodi-0.dtd"
   xmlns="http://www.w3.org/2000/svg"
   xmlns:svg="http://www.w3.org/2000/svg"><defs
     id="defs1" /><sodipodi:namedview
     id="namedview1"
     pagecolor="#ffffff"
     bordercolor="#111111"
     borderopacity="1"
     inkscape:showpageshadow="0"
     inkscape:pageopacity="0"
     inkscape:pagecheckerboard="1"
     inkscape:deskcolor="#d1d1d1"
     inkscape:zoom="0.45833333"
     inkscape:cx="538.90909"
     inkscape:cy="540"
     inkscape:window-width="1920"
     inkscape:window-height="1009"
     inkscape:window-x="1358"
     inkscape:window-y="-7"
     inkscape:window-maximized="1"
     inkscape:current-layer="g1" /><g
     inkscape:groupmode="layer"
     inkscape:label="Image"
     id="g1"><g
       id="g2"
       transform="matrix(0.76896284,-0.34125356,0.34125356,0.76896284,-87.528365,305.05382)"><path
         style="fill:#f2d25d"
         d="m 170.19419,1054.3857 c -14.90323,-5.5346 -21.45779,-22.8436 -13.66816,-36.0941 0.97858,-1.6646 30.50374,-39.00858 65.61145,-82.98659 35.10772,-43.97801 63.83222,-80.52855 63.83222,-81.22343 0,-0.69487 0.55733,-1.2634 1.23852,-1.2634 1.59885,0 39.42814,-47.27629 39.42814,-49.27443 0,-0.83137 0.6027,-1.74287 1.33932,-2.02553 1.69109,-0.64893 142.66068,-177.14815 142.66068,-178.61653 0,-0.76171 -13.16225,-1.08351 -44.3185,-1.08351 -53.5982,0 -59.30351,-1.15754 -68.03649,-13.80378 -6.13232,-8.88021 -6.10221,-8.66682 -6.64501,-47.08833 -0.42507,-30.08875 -0.72477,-35.5114 -2,-36.18818 -0.825,-0.43783 -3.71121,-1.83638 -6.4138,-3.10788 -39.9469,-18.79402 -18.88224,-82.6629 24.65909,-74.76735 38.56833,6.99377 45.34715,61.16255 9.50471,75.95111 -5.75,2.37244 -5.75,2.37244 -5.74626,35.43843 0.005,48.23922 -6.82482,43.55729 63.55112,43.56224 53.05485,0.004 53.05485,0.004 112,-73.63345 70.44488,-88.00324 62.62327,-76.66178 58.05543,-84.18125 -62.61654,-103.07795 74.87804,-209.73034 157.08477,-121.84818 69.09515,73.86537 -7.9057,195.81715 -103.07005,163.23946 -5.98125,-2.04757 -11.21467,-3.3516 -11.62982,-2.89784 -3.89494,4.25704 -171.99519,215.61546 -171.99519,216.25565 0,0.82164 132.26484,2.08785 134.69614,1.28949 0.65788,-0.21603 2.49469,-3.16772 4.08181,-6.55932 16.13878,-34.48777 68.97228,-27.71369 75.27472,9.6514 7.73517,45.85929 -56.80192,65.68246 -75.58264,23.21592 -3.14749,-7.11703 4.36304,-6.58981 -81.97003,-5.75412 -75,0.72598 -75,0.72598 -122.22143,59.72598 -25.97179,32.45 -47.23429,59.52951 -47.25,60.17668 -0.0157,0.64717 -0.66602,1.32217 -1.44512,1.5 -2.36497,0.53979 -37.8592,45.66234 -37.22299,47.32026 0.31686,0.82575 0.0577,1.37394 -0.58673,1.24107 -0.63486,-0.13091 -27.58188,32.83699 -59.88226,73.26199 -73.03926,91.41102 -68.45231,85.90882 -73.98875,88.75202 -5.82133,2.9896 -14.09322,3.7659 -19.34489,1.8155 z M 542.44886,898.13507 c 0.72188,-0.28887 1.58438,-0.25335 1.91667,0.0789 0.33229,0.33229 -0.25833,0.56864 -1.3125,0.52521 -1.16494,-0.048 -1.4019,-0.28494 -0.60417,-0.60416 z m 31,0 c 0.72188,-0.28887 1.58438,-0.25335 1.91667,0.0789 0.33229,0.33229 -0.25833,0.56864 -1.3125,0.52521 -1.16494,-0.048 -1.4019,-0.28494 -0.60417,-0.60416 z m 168.6875,-69.31689 c 0.99549,-1.1 2.03498,-2 2.30998,-2 0.275,0 -0.31449,0.9 -1.30998,2 -0.99548,1.1 -2.03497,2 -2.30997,2 -0.275,0 0.31449,-0.9 1.30997,-2 z m 11.5,-11.37755 c 0,-0.20766 0.7875,-0.99516 1.75,-1.75 1.58606,-1.24387 1.62143,-1.2085 0.37756,0.37755 -1.30637,1.66575 -2.12756,2.19548 -2.12756,1.37245 z M 182.86837,593.81818 c 0,-1.925 0.20579,-2.7125 0.45732,-1.75 0.25153,0.9625 0.25153,2.5375 0,3.5 -0.25153,0.9625 -0.45732,0.175 -0.45732,-1.75 z m 106.26799,-241 c 0.99549,-1.1 2.03498,-2 2.30998,-2 0.275,0 -0.31449,0.9 -1.30998,2 -0.99548,1.1 -2.03497,2 -2.30997,2 -0.275,0 0.31449,-0.9 1.30997,-2 z m 670.57895,-13.58333 c 0.048,-1.16494 0.28494,-1.4019 0.60417,-0.60417 0.28887,0.72188 0.25334,1.58438 -0.0789,1.91667 -0.33229,0.33229 -0.56864,-0.25833 -0.52522,-1.3125 z m -61.92105,-18.41667 c 0,-1.375 0.22697,-1.9375 0.50438,-1.25 0.27742,0.6875 0.27742,1.8125 0,2.5 -0.27741,0.6875 -0.50438,0.125 -0.50438,-1.25 z m 63,-10 c 0,-1.375 0.22697,-1.9375 0.50438,-1.25 0.27742,0.6875 0.27742,1.8125 0,2.5 -0.27741,0.6875 -0.50438,0.125 -0.50438,-1.25 z m -61.87188,-34.5 c 0.008,-2.75 0.20171,-3.75631 0.43156,-2.23625 0.22986,1.52006 0.22372,3.77006 -0.0136,5 -0.23736,1.22994 -0.42542,-0.0138 -0.41791,-2.76375 z m -0.0136,-28.5 c 0,-2.475 0.19501,-3.4875 0.43337,-2.25 0.23835,1.2375 0.23835,3.2625 0,4.5 -0.23836,1.2375 -0.43337,0.225 -0.43337,-2.25 z m 61.88553,-40 c 0,-1.375 0.22697,-1.9375 0.50438,-1.25 0.27742,0.6875 0.27742,1.8125 0,2.5 -0.27741,0.6875 -0.50438,0.125 -0.50438,-1.25 z m -63.07895,-15.58333 c 0.048,-1.16494 0.28494,-1.4019 0.60417,-0.60417 0.28887,0.72188 0.25334,1.58438 -0.0789,1.91667 -0.33229,0.33229 -0.56864,-0.25833 -0.52522,-1.3125 z m 62,-16 c 0.048,-1.16494 0.28494,-1.4019 0.60417,-0.60417 0.28887,0.72188 0.25334,1.58438 -0.0789,1.91667 -0.33229,0.33229 -0.56864,-0.25833 -0.52522,-1.3125 z m -1,-22 c 0.048,-1.16494 0.28494,-1.4019 0.60417,-0.60417 0.28887,0.72188 0.25334,1.58438 -0.0789,1.91667 -0.33229,0.33229 -0.56864,-0.25833 -0.52522,-1.3125 z"
         id="path4" /><path
         style="fill:#6d8973"
         d="m 529.13636,959.73712 c -82.29026,-7.41312 -168.26967,-34.71854 -197.75,-62.80162 -9.63557,-9.17889 -10.81781,-5.51969 10.33491,-31.98787 21.22636,-26.56032 18.34178,-24.6286 26.69126,-17.87441 17.11383,13.84397 25.83645,18.41514 50.80813,26.62644 301.38773,99.10371 466.4787,-97.96934 479.43012,-572.30725 1.51119,-55.34648 -1.87219,-183.49 -4.97736,-188.51426 -1.9984,-3.23348 -120.76941,34.63981 -182.53706,58.20679 -324.46556,123.79737 -489.49273,286.88643 -463.17283,457.73324 8.76057,56.86629 39.38084,126.30039 73.1801,165.94221 7.38808,8.66519 7.97669,7.18833 -13.64023,34.22409 -21.98138,27.49157 -19.87079,26.45343 -29.13426,14.33033 C 36.690541,527.0302 274.22388,212.81723 876.63636,51.917206 c 71.81077,-19.180138 74.5575,-16.810169 80.4339,69.400974 25.05653,367.59788 -46.84765,654.90123 -192.9339,770.89483 -64.73622,51.40106 -148.09463,75.35298 -235,67.52411 z m 77.5,-3.36864 C 857.2546,922.72844 986.21609,619.00613 956.1062,133.31818 949.61548,28.619538 953.13869,30.433315 828.13636,67.438253 256.17847,236.75722 42.828581,540.74722 282.0591,845.51237 c 5.55688,7.07913 4.38454,7.89401 23.65763,-16.44419 9.47294,-11.9625 17.88946,-22.52597 18.70338,-23.47437 1.81315,-2.11275 0.94352,-3.64352 -7.35054,-12.93885 C 263.76018,732.91003 233.2323,620.58005 249.30741,543.31818 283.77066,377.6773 515.77399,217.91724 868.49553,116.9384 c 30.75519,-8.80475 27.25239,-11.37692 29.11518,21.37978 33.09851,582.02925 -150.22766,855.3749 -491.58397,732.9687 -11.05015,-3.96245 -22.98357,-10.79091 -34.75833,-19.88919 -4.32738,-3.34373 -8.46385,-6.51079 -9.19216,-7.03791 -0.94317,-0.68262 -1.88431,-0.25101 -3.27081,1.5 -1.07063,1.35212 -8.97088,11.2334 -17.5561,21.9584 -18.18739,22.72042 -17.38773,20.19172 -8.86298,28.02645 44.3633,40.77236 186.95662,72.24108 274.25,60.52385 z"
         id="path3" /><path
         style="fill:#385f40"
         d="m 522.13636,957.34479 c -79.56766,-8.35422 -160.44547,-34.56765 -189.75,-61.50016 -8.52475,-7.83473 -9.32441,-5.30603 8.86298,-28.02645 8.58522,-10.725 16.48547,-20.60628 17.5561,-21.9584 1.3865,-1.75101 2.32764,-2.18262 3.27081,-1.5 0.72831,0.52712 4.86478,3.69418 9.19216,7.03791 11.77476,9.09828 23.70818,15.92674 34.75833,19.88919 341.35631,122.4062 524.68248,-150.93945 491.58397,-732.9687 -1.86279,-32.7567 1.64001,-30.18453 -29.11518,-21.37978 -352.72154,100.97884 -584.72487,260.7389 -619.18812,426.37978 -16.07511,77.26187 14.45277,189.59185 67.76216,249.33678 8.29406,9.29533 9.16369,10.8261 7.35054,12.93885 -0.81392,0.9484 -9.23044,11.51187 -18.70338,23.47437 -19.27309,24.3382 -18.10075,23.52332 -23.65763,16.44419 C 42.828581,540.74722 256.17847,236.75722 828.13636,67.438253 943.11233,33.40146 948.2449,34.382368 953.0874,91.318182 1000.5648,649.53387 831.24227,989.79943 522.13636,957.34479 Z"
         id="path2" /></g></g></svg>
